#N canvas 562 89 416 548 10;
#X declare -path libw/mrpeach;
#X declare -path libw/cyclone;
#X declare -path libw/gem;
#X declare -lib Gem;
#X declare -lib Gem;
#X declare -path libl/gem;
#X declare -path libl/mrpeach;
#X declare -path libl/cyclone;
#N canvas 548 298 450 300 datos 0;
#X obj 1 90 cnv 15 230 65 empty empty ESTADO 10 12 0 14 -203904 -1
0;
#X obj 13 112 tgl 20 1 empty empty empty 17 7 0 15 -16662 -262144 -262144
0 0.0282994;
#X obj 98 112 tgl 20 0 empty empty empty 17 7 0 10 -13381 -262144 -262144
0 0.603688;
#X text 11 130 PosX;
#X text 97 130 PosY;
#X obj 188 112 tgl 20 0 empty empty empty 17 7 0 10 -86277 -262144
-262144 0 0.260968;
#X text 170 130 Telefono;
#X obj 31 -27 r gx;
#X obj 116 -28 r gy;
#X obj 188 -28 r gt;
#X msg 270 -2 bang;
#X msg 270 41 0;
#X obj 270 -22 loadbang;
#X obj 270 20 metro 3000;
#X obj 34 112 nbx 4 20 -1e+37 1e+37 0 0 empty empty empty 0 -8 0 10
-16662 -203904 -1 0 256;
#X obj 119 112 nbx 4 20 -1e+37 1e+37 0 0 empty empty empty 0 -8 0 10
-13381 -204786 -1 0 256;
#X text 4 139 -------------------------------;
#X connect 7 0 1 0;
#X connect 7 0 14 0;
#X connect 8 0 2 0;
#X connect 8 0 15 0;
#X connect 9 0 5 0;
#X connect 10 0 13 0;
#X connect 11 0 1 0;
#X connect 11 0 2 0;
#X connect 11 0 5 0;
#X connect 11 0 15 0;
#X connect 11 0 14 0;
#X connect 12 0 10 0;
#X connect 13 0 11 0;
#X coords 0 -1 1 1 230 65 1 1 90;
#X restore 88 63 pd datos;
#N canvas 289 93 936 622 interfaz 0;
#X obj 200 24 gemhead;
#X obj 200 559 square;
#X obj 200 228 translateXYZ;
#X obj -144 21 vradio 15 1 0 3 empty \$0-full empty 0 -8 0 10 -262144
-1 -1 0;
#X msg -144 75 reset \, fullscreen \$1 \, create \, 1;
#X msg -134 186 0 \, destroy;
#N canvas 333 186 450 300 esc 0;
#X obj 65 20 gemkeyboard;
#X obj 65 167 outlet;
#X obj 89 71 keyname;
#X obj 128 96 sel Escape;
#X obj 189 47 sel Escape;
#X obj 150 22 gemkeyname;
#X obj 65 41 sel 27;
#X connect 0 0 6 0;
#X connect 2 1 3 0;
#X connect 3 0 1 0;
#X connect 4 0 1 0;
#X connect 5 1 4 0;
#X connect 6 0 1 0;
#X restore -134 164 pd esc;
#X obj -144 238 gemwin;
#X obj 223 58 r \$0-x;
#X obj 273 58 r \$0-y;
#X text -126 19 Default;
#X text -126 35 FullScreen 1;
#X obj 542 150 cnv 15 230 260 empty empty empty 20 12 0 14 -203904
-66577 0;
#X obj 744 166 bng 20 250 50 0 \$0-reset empty Reset -4 -6 0 10 -204800
-258113 -1;
#X obj 75 152 tgl 15 0 empty \$0-corx empty 17 7 0 10 -262144 -1 -1
0 1;
#X obj 75 168 sel 1;
#X obj 117 167 sel 0;
#X msg 117 185 1;
#X msg 75 185 -1;
#X obj 223 202 * \$1;
#X obj 559 374 tgl 15 0 \$0-corx empty Invertir_X 17 7 0 10 -204800
-1 -1 0 1;
#X obj 12 168 loadbang;
#X obj 273 203 * \$1;
#X obj 426 153 tgl 15 0 empty \$0-cory empty 17 7 0 10 -262144 -1 -1
0 1;
#X obj 433 169 sel 1;
#X obj 476 168 sel 0;
#X msg 476 186 1;
#X msg 433 186 -1;
#X obj 369 169 loadbang;
#X obj 559 391 tgl 15 0 \$0-cory empty Invertir_Y 17 7 0 10 -204800
-1 -1 0 1;
#X obj 652 374 tgl 15 0 \$0-rot1 empty Invertir_R1 17 7 0 10 -204800
-1 -1 0 1;
#X obj 652 391 tgl 15 0 \$0-rot2 empty Invertir_R2 17 7 0 10 -204800
-1 -1 0 1;
#X obj 88 28 r \$0-res;
#X obj 88 65 / 2;
#X obj 223 79 * \$1;
#X obj 273 79 * \$1;
#X obj 223 101 - \$1;
#X obj 273 101 - \$1;
#X obj 561 171 hsl 126 15 0 100 0 0 \$0-res empty Resolución_X -2
-8 0 12 -232576 -45076 -45076 0 1;
#X obj 558 50 loadbang;
#X obj 561 247 hsl 126 15 -400 400 0 0 \$0-posx empty Pos_X -2 -8 0
12 -204786 -13381 -13381 6250 1;
#X obj 561 281 hsl 126 15 -400 400 0 0 \$0-posy empty Pos_Y -2 -8 0
12 -204786 -13381 -13381 6250 1;
#X obj 561 316 hsl 126 15 1 300 0 0 \$0-an empty Ancho -2 -8 0 12 -261682
-86853 -86853 376 1;
#X obj 561 350 hsl 126 15 1 300 0 0 \$0-al empty Alto -2 -8 0 12 -261682
-86853 -86853 376 1;
#X obj 200 471 scaleXYZ;
#X obj 215 401 r \$0-an;
#X obj 215 425 / 50;
#X obj 265 429 / 50;
#X obj 265 404 r \$0-al;
#X obj 223 174 + \$1;
#X floatatom 244 123 5 0 0 0 - #0-posx -, f 5;
#X obj 558 106 loadbang;
#X obj 558 35 bng 15 250 50 0 empty \$0-reset empty 17 7 0 10 -262144
-1 -1;
#X obj 558 90 bng 15 250 50 0 empty \$0-reset empty 17 7 0 10 -262144
-1 -1;
#X obj 273 174 + \$1;
#X floatatom 294 124 5 0 0 0 - #0-posy -, f 5;
#X obj 244 146 / 50;
#X obj 294 146 / 50;
#N canvas 63 81 531 598 teclas 0;
#X floatatom 2 172 5 0 0 0 - - #0-posx2, f 5;
#X text 1 1 Pos X;
#X msg 2 225 0;
#X obj 31 210 bng 15 250 50 0 empty \$0-reset empty 17 7 0 10 -262144
-1 -1;
#X obj 47 208 loadbang;
#N canvas 663 195 450 300 contador 0;
#X obj 109 142 f;
#X floatatom 109 189 5 0 0 0 - - -, f 5;
#X obj 109 109 bng 15 250 50 0 empty empty empty 17 7 0 10 -262144
-1 -1;
#X obj 181 99 bng 15 250 50 0 empty empty empty 17 7 0 10 -262144 -1
-1;
#X obj 213 98 bng 15 250 50 0 empty empty empty 17 7 0 10 -262144 -1
-1;
#X obj 160 144 + \$1;
#X msg 181 120 1;
#X msg 213 127 -1;
#X obj 292 146 bng 15 250 50 0 empty empty empty 17 7 0 10 -262144
-1 -1;
#X msg 292 172 0;
#X obj 109 46 inlet;
#X obj 181 47 inlet;
#X obj 221 47 inlet;
#X obj 292 47 inlet;
#X obj 109 220 outlet;
#X obj 123 82 loadbang;
#X connect 0 0 1 0;
#X connect 0 0 5 0;
#X connect 1 0 14 0;
#X connect 2 0 0 0;
#X connect 3 0 6 0;
#X connect 4 0 7 0;
#X connect 5 0 0 1;
#X connect 6 0 5 1;
#X connect 7 0 5 1;
#X connect 8 0 9 0;
#X connect 9 0 1 0;
#X connect 9 0 0 0;
#X connect 10 0 2 0;
#X connect 11 0 3 0;
#X connect 12 0 4 0;
#X connect 13 0 8 0;
#X connect 15 0 3 0;
#X restore 2 145 pd contador;
#X floatatom 253 172 5 0 0 0 - - #0-posy2, f 5;
#X msg 253 225 0;
#X obj 282 210 bng 15 250 50 0 empty \$0-reset empty 17 7 0 10 -262144
-1 -1;
#X obj 298 208 loadbang;
#N canvas 663 195 450 300 contador 0;
#X obj 109 142 f;
#X floatatom 109 189 5 0 0 0 - - -, f 5;
#X obj 109 109 bng 15 250 50 0 empty empty empty 17 7 0 10 -262144
-1 -1;
#X obj 181 99 bng 15 250 50 0 empty empty empty 17 7 0 10 -262144 -1
-1;
#X obj 213 98 bng 15 250 50 0 empty empty empty 17 7 0 10 -262144 -1
-1;
#X obj 160 144 + \$1;
#X msg 181 120 1;
#X msg 213 127 -1;
#X obj 292 146 bng 15 250 50 0 empty empty empty 17 7 0 10 -262144
-1 -1;
#X msg 292 172 0;
#X obj 109 46 inlet;
#X obj 181 47 inlet;
#X obj 221 47 inlet;
#X obj 292 47 inlet;
#X obj 109 220 outlet;
#X obj 123 82 loadbang;
#X connect 0 0 1 0;
#X connect 0 0 5 0;
#X connect 1 0 14 0;
#X connect 2 0 0 0;
#X connect 3 0 6 0;
#X connect 4 0 7 0;
#X connect 5 0 0 1;
#X connect 6 0 5 1;
#X connect 7 0 5 1;
#X connect 8 0 9 0;
#X connect 9 0 1 0;
#X connect 9 0 0 0;
#X connect 10 0 2 0;
#X connect 11 0 3 0;
#X connect 12 0 4 0;
#X connect 13 0 8 0;
#X connect 15 0 3 0;
#X restore 253 145 pd contador;
#X obj 2 433 bng 15 250 50 0 empty empty empty 17 7 0 10 -262144 -1
-1;
#X floatatom 2 492 5 0 0 0 - - #0-an2, f 5;
#X obj 65 434 bng 15 250 50 0 empty \$0-reset empty 17 7 0 10 -262144
-1 -1;
#X obj 91 423 onebang;
#X obj 91 450 bng 15 250 50 0 empty empty empty 17 7 0 10 -262144 -1
-1;
#X obj 151 423 onebang;
#X obj 151 450 bng 15 250 50 0 empty empty empty 17 7 0 10 -262144
-1 -1;
#X obj 31 530 bng 15 250 50 0 empty \$0-reset empty 17 7 0 10 -262144
-1 -1;
#X obj 47 528 loadbang;
#N canvas 663 195 450 300 contador 0;
#X obj 109 142 f;
#X floatatom 109 189 5 0 0 0 - - -, f 5;
#X obj 109 109 bng 15 250 50 0 empty empty empty 17 7 0 10 -262144
-1 -1;
#X obj 181 99 bng 15 250 50 0 empty empty empty 17 7 0 10 -262144 -1
-1;
#X obj 213 98 bng 15 250 50 0 empty empty empty 17 7 0 10 -262144 -1
-1;
#X obj 160 144 + \$1;
#X msg 181 120 1;
#X msg 213 127 -1;
#X obj 292 146 bng 15 250 50 0 empty empty empty 17 7 0 10 -262144
-1 -1;
#X msg 292 172 0;
#X obj 109 46 inlet;
#X obj 181 47 inlet;
#X obj 221 47 inlet;
#X obj 292 47 inlet;
#X obj 109 220 outlet;
#X obj 123 82 loadbang;
#X connect 0 0 1 0;
#X connect 0 0 5 0;
#X connect 1 0 14 0;
#X connect 2 0 0 0;
#X connect 3 0 6 0;
#X connect 4 0 7 0;
#X connect 5 0 0 1;
#X connect 6 0 5 1;
#X connect 7 0 5 1;
#X connect 8 0 9 0;
#X connect 9 0 1 0;
#X connect 9 0 0 0;
#X connect 10 0 2 0;
#X connect 11 0 3 0;
#X connect 12 0 4 0;
#X connect 13 0 8 0;
#X connect 15 0 3 0;
#X restore 2 465 pd contador;
#X text 1 321 Ancho;
#X msg 2 545 10;
#X text 252 1 Pos Y;
#X obj 253 113 bng 15 250 50 0 empty empty empty 17 7 0 10 -262144
-1 -1;
#X obj 342 103 onebang;
#X obj 342 130 bng 15 250 50 0 empty empty empty 17 7 0 10 -262144
-1 -1;
#X obj 402 103 onebang;
#X obj 402 130 bng 15 250 50 0 empty empty empty 17 7 0 10 -262144
-1 -1;
#X obj 252 433 bng 15 250 50 0 empty empty empty 17 7 0 10 -262144
-1 -1;
#X floatatom 252 492 5 0 0 0 - - #0-al2, f 5;
#X obj 315 434 bng 15 250 50 0 empty \$0-reset empty 17 7 0 10 -262144
-1 -1;
#X obj 341 423 onebang;
#X obj 341 450 bng 15 250 50 0 empty empty empty 17 7 0 10 -262144
-1 -1;
#X obj 401 423 onebang;
#X obj 401 450 bng 15 250 50 0 empty empty empty 17 7 0 10 -262144
-1 -1;
#X obj 281 530 bng 15 250 50 0 empty \$0-reset empty 17 7 0 10 -262144
-1 -1;
#X obj 297 528 loadbang;
#N canvas 663 195 450 300 contador 0;
#X obj 109 142 f;
#X floatatom 109 189 5 0 0 0 - - -, f 5;
#X obj 109 109 bng 15 250 50 0 empty empty empty 17 7 0 10 -262144
-1 -1;
#X obj 181 99 bng 15 250 50 0 empty empty empty 17 7 0 10 -262144 -1
-1;
#X obj 213 98 bng 15 250 50 0 empty empty empty 17 7 0 10 -262144 -1
-1;
#X obj 160 144 + \$1;
#X msg 181 120 1;
#X msg 213 127 -1;
#X obj 292 146 bng 15 250 50 0 empty empty empty 17 7 0 10 -262144
-1 -1;
#X msg 292 172 0;
#X obj 109 46 inlet;
#X obj 181 47 inlet;
#X obj 221 47 inlet;
#X obj 292 47 inlet;
#X obj 109 220 outlet;
#X obj 123 82 loadbang;
#X connect 0 0 1 0;
#X connect 0 0 5 0;
#X connect 1 0 14 0;
#X connect 2 0 0 0;
#X connect 3 0 6 0;
#X connect 4 0 7 0;
#X connect 5 0 0 1;
#X connect 6 0 5 1;
#X connect 7 0 5 1;
#X connect 8 0 9 0;
#X connect 9 0 1 0;
#X connect 9 0 0 0;
#X connect 10 0 2 0;
#X connect 11 0 3 0;
#X connect 12 0 4 0;
#X connect 13 0 8 0;
#X connect 15 0 3 0;
#X restore 252 465 pd contador;
#X msg 252 545 10;
#X obj 253 20 gemkeyname;
#X obj 252 338 gemkeyname;
#X obj 253 65 sel Up;
#X obj 362 69 sel Down;
#X obj 252 382 sel w;
#X obj 353 384 sel s;
#X obj 316 114 bng 15 250 50 0 empty \$0-reset empty 17 7 0 10 -262144
-1 -1;
#X obj 65 114 bng 15 250 50 0 empty \$0-reset empty 17 7 0 10 -262144
-1 -1;
#X obj 2 113 bng 15 250 50 0 empty empty empty 17 7 0 10 -262144 -1
-1;
#X obj 121 103 onebang;
#X obj 121 130 bng 15 250 50 0 empty empty empty 17 7 0 10 -262144
-1 -1;
#X obj 181 103 onebang;
#X obj 181 130 bng 15 250 50 0 empty empty empty 17 7 0 10 -262144
-1 -1;
#X obj 3 19 gemkeyname;
#X obj 2 65 sel Right;
#X obj 121 69 sel Left;
#X obj 72 65 sel ';
#X obj 191 69 sel %;
#X obj 421 70 sel (;
#X obj 305 65 sel &;
#X text 251 319 Alto;
#X obj 292 382 sel W;
#X obj 395 384 sel S;
#X obj 2 340 gemkeyname;
#X obj 141 388 sel A;
#X obj 91 388 sel a;
#X obj 2 385 sel d;
#X obj 42 385 sel D;
#X connect 2 0 0 0;
#X connect 3 0 2 0;
#X connect 4 0 3 0;
#X connect 5 0 0 0;
#X connect 7 0 6 0;
#X connect 8 0 7 0;
#X connect 9 0 8 0;
#X connect 10 0 6 0;
#X connect 11 0 20 0;
#X connect 13 0 20 3;
#X connect 14 0 15 0;
#X connect 15 0 20 2;
#X connect 16 0 17 0;
#X connect 17 0 20 1;
#X connect 18 0 22 0;
#X connect 19 0 18 0;
#X connect 20 0 12 0;
#X connect 22 0 12 0;
#X connect 24 0 10 0;
#X connect 25 0 26 0;
#X connect 26 0 10 2;
#X connect 27 0 28 0;
#X connect 28 0 10 1;
#X connect 29 0 38 0;
#X connect 31 0 38 3;
#X connect 32 0 33 0;
#X connect 33 0 38 2;
#X connect 34 0 35 0;
#X connect 35 0 38 1;
#X connect 36 0 39 0;
#X connect 37 0 36 0;
#X connect 38 0 30 0;
#X connect 39 0 30 0;
#X connect 40 1 42 0;
#X connect 40 1 43 0;
#X connect 40 1 58 0;
#X connect 40 1 59 0;
#X connect 41 1 44 0;
#X connect 41 1 45 0;
#X connect 41 1 61 0;
#X connect 41 1 62 0;
#X connect 42 0 24 0;
#X connect 42 0 25 1;
#X connect 42 0 27 0;
#X connect 43 0 24 0;
#X connect 43 0 25 0;
#X connect 43 0 27 1;
#X connect 44 0 29 0;
#X connect 44 0 32 1;
#X connect 44 0 34 0;
#X connect 45 0 29 0;
#X connect 45 0 32 0;
#X connect 45 0 34 1;
#X connect 46 0 10 3;
#X connect 47 0 5 3;
#X connect 48 0 5 0;
#X connect 49 0 50 0;
#X connect 50 0 5 2;
#X connect 51 0 52 0;
#X connect 52 0 5 1;
#X connect 53 1 54 0;
#X connect 53 1 55 0;
#X connect 53 1 56 0;
#X connect 53 1 57 0;
#X connect 54 0 48 0;
#X connect 54 0 49 1;
#X connect 54 0 51 0;
#X connect 55 0 48 0;
#X connect 55 0 49 0;
#X connect 55 0 51 1;
#X connect 56 0 48 0;
#X connect 56 0 49 1;
#X connect 56 0 51 0;
#X connect 57 0 49 0;
#X connect 57 0 51 1;
#X connect 57 0 48 0;
#X connect 58 0 27 1;
#X connect 58 0 25 0;
#X connect 58 0 24 0;
#X connect 59 0 27 0;
#X connect 59 0 25 1;
#X connect 59 0 24 0;
#X connect 61 0 29 0;
#X connect 61 0 32 1;
#X connect 61 0 34 0;
#X connect 62 0 32 0;
#X connect 62 0 29 0;
#X connect 62 0 34 1;
#X connect 63 1 65 0;
#X connect 63 1 64 0;
#X connect 63 1 66 0;
#X connect 63 1 67 0;
#X connect 64 0 14 0;
#X connect 64 0 11 0;
#X connect 64 0 16 1;
#X connect 65 0 11 0;
#X connect 65 0 14 0;
#X connect 65 0 16 1;
#X connect 66 0 11 0;
#X connect 66 0 14 1;
#X connect 66 0 16 0;
#X connect 67 0 11 0;
#X connect 67 0 14 1;
#X connect 67 0 16 0;
#X restore -144 320 pd teclas;
#X msg 558 124 10;
#X obj 165 157 t b f;
#X obj 321 157 t b f;
#X obj 133 88 r \$0-posx2;
#X obj 133 129 + \$1;
#X obj 133 109 t b f;
#X obj 397 129 + \$1;
#X obj 397 101 t b f;
#X obj 397 78 r \$0-posy2;
#X obj 125 408 + \$1;
#X obj 125 380 t b f;
#X obj 125 357 r \$0-an2;
#X obj 335 412 + \$1;
#X obj 335 389 t b f;
#X obj 335 367 r \$0-al2;
#X obj 744 217 vradio 20 1 0 3 \$0-full empty GEM 1 -8 0 10 -204800
-260097 -1 0;
#X text -126 51 FullScreen 2;
#X text 746 237 F1;
#X text 746 257 F2;
#X obj 88 84 t b f;
#X obj 88 47 t b f;
#X msg 558 68 0;
#X obj 200 524 pix_texture;
#X obj 200 501 pix_film;
#X msg -45 484 open \$1;
#X obj 105 454 loadbang;
#X msg 105 484 auto 1;
#X obj 67 476 bng 15 250 50 0 empty empty empty 17 7 0 10 -262144 -1
-1;
#X obj 17 378 tgl 15 0 empty \$0-inv empty 17 7 0 10 -262144 -1 -1
0 1;
#X obj 17 394 sel 1;
#X obj 59 393 sel 0;
#X msg 59 411 1;
#X msg 17 411 -1;
#X obj -46 394 loadbang;
#X obj 215 445 * \$1;
#X obj 744 316 tgl 20 0 \$0-inv empty ESP 2 -7 0 10 -204800 -16662
-1 0 1;
#X obj 86 428 t b f;
#X obj 561 208 hsl 126 15 0 100 0 0 \$0-resy empty Resolución_Y -2
-8 0 12 -232576 -45076 -45076 0 1;
#X obj 348 65 / 2;
#X obj 348 84 t b f;
#X obj 348 47 t b f;
#X obj 348 28 r \$0-resy;
#X obj 200 367 rotateXYZ;
#X msg 299 350 0;
#X obj 326 254 r \$0-ry;
#X obj 299 328 bng 15 250 50 0 empty \$0-reset empty 17 7 0 10 -262144
-1 -1;
#X obj 217 340 * \$1;
#X obj 257 340 * \$1;
#X obj 113 290 tgl 15 0 empty \$0-rot1 empty 17 7 0 10 -262144 -1 -1
0 1;
#X obj 113 306 sel 1;
#X obj 157 305 sel 0;
#X msg 157 323 1;
#X msg 113 323 -1;
#X obj 49 306 loadbang;
#X obj 385 290 tgl 15 0 empty \$0-rot2 empty 17 7 0 10 -262144 -1 -1
0 1;
#X obj 385 306 sel 1;
#X obj 428 305 sel 0;
#X msg 428 323 1;
#X msg 385 323 -1;
#X obj 318 306 loadbang;
#X msg -144 215 view 0 0 20 \, perspec -1 1 -1 1 4 50;
#X msg 274 484 0;
#X obj -45 454 r cargar_video;
#X obj 689 171 nbx 4 15 -1e+37 1e+37 0 0 empty \$0-res empty 0 -8 0
10 -232576 -45076 -1 0 256;
#X obj 689 208 nbx 4 15 -1e+37 1e+37 0 0 empty \$0-resy empty 0 -8
0 10 -232576 -45076 -1 0 256;
#X obj 689 247 nbx 4 15 -1e+37 1e+37 0 0 empty \$0-posx empty 0 -8
0 10 -204786 -13381 -1 0 256;
#X obj 689 281 nbx 4 15 -1e+37 1e+37 0 0 empty \$0-posy empty 0 -8
0 10 -204786 -13381 -1 0 256;
#X obj 689 316 nbx 4 15 -1e+37 1e+37 0 0 empty \$0-an empty 0 -8 0
10 -261682 -86853 -1 10 256;
#X obj 689 350 nbx 4 15 -1e+37 1e+37 0 0 empty \$0-al empty 0 -8 0
10 -261682 -86853 -1 10 256;
#X text 638 369 |;
#X text 638 379 |;
#X text 638 389 |;
#X obj 272 254 r \$0-rx;
#X obj 217 254 r \$0-rz;
#X obj 217 274 * 9;
#X obj 272 276 * 9;
#N canvas 343 261 450 300 cargar 0;
#X obj 17 78 declare -path libw/mrpeach;
#X obj 17 98 declare -path libw/cyclone;
#X obj 17 39 declare -path libw/gem;
#X obj 17 59 declare -lib Gem;
#X obj 17 189 declare -lib Gem;
#X obj 17 169 declare -path libl/gem;
#X obj 17 208 declare -path libl/mrpeach;
#X obj 17 228 declare -path libl/cyclone;
#X text 16 22 Windows Libs;
#X text 14 152 Linux Libs;
#X restore -144 298 pd cargar;
#X text 750 218 D;
#N canvas 126 204 535 289 conex 0;
#X floatatom -837 -383 5 0 0 0 - - -, f 5;
#X floatatom -759 -383 5 0 0 0 - - -, f 5;
#X obj -837 -355 s \$0-x;
#X obj -759 -356 s \$0-y;
#X obj -837 -327 s gx;
#X obj -759 -327 s gy;
#X obj -837 -435 unpackOSC;
#X obj -837 -458 udpreceive 12001;
#X obj -837 -410 routeOSC /x;
#X obj -759 -410 routeOSC /y;
#X obj -684 -377 unpack 0 0 0;
#X floatatom -684 -346 5 0 0 0 - - -, f 5;
#X floatatom -638 -346 5 0 0 0 - - -, f 5;
#X floatatom -591 -345 5 0 0 0 - - -, f 5;
#X text -678 -327 X;
#X text -581 -327 Z;
#X text -628 -327 Y;
#X obj -684 -309 s \$0-rx;
#X obj -638 -309 s \$0-ry;
#X obj -591 -309 s \$0-rz;
#X obj -684 -282 s gt;
#X obj -684 -410 routeOSC /accelerometer;
#X obj -524 -377 unpack 0 0 0;
#X floatatom -524 -346 5 0 0 0 - - -, f 5;
#X floatatom -471 -346 5 0 0 0 - - -, f 5;
#X floatatom -418 -345 5 0 0 0 - - -, f 5;
#X text -518 -327 X;
#X text -408 -327 Z;
#X text -461 -327 Y;
#X obj -524 -309 s \$0-rgx;
#X obj -471 -309 s \$0-rgy;
#X obj -418 -309 s \$0-rgz;
#X obj -524 -410 routeOSC /giroscope;
#X connect 0 0 2 0;
#X connect 0 0 4 0;
#X connect 1 0 3 0;
#X connect 1 0 5 0;
#X connect 6 0 8 0;
#X connect 6 0 9 0;
#X connect 6 0 21 0;
#X connect 6 0 32 0;
#X connect 7 0 6 0;
#X connect 8 0 0 0;
#X connect 9 0 1 0;
#X connect 10 0 11 0;
#X connect 10 1 12 0;
#X connect 10 2 13 0;
#X connect 11 0 17 0;
#X connect 11 0 20 0;
#X connect 12 0 18 0;
#X connect 13 0 19 0;
#X connect 21 0 10 0;
#X connect 22 0 23 0;
#X connect 22 1 24 0;
#X connect 22 2 25 0;
#X connect 23 0 29 0;
#X connect 24 0 30 0;
#X connect 25 0 31 0;
#X connect 32 0 22 0;
#X restore -144 276 pd conex;
#X connect 0 0 2 0;
#X connect 2 0 101 0;
#X connect 3 0 4 0;
#X connect 4 0 7 0;
#X connect 4 0 119 0;
#X connect 5 0 7 0;
#X connect 6 0 5 0;
#X connect 8 0 34 0;
#X connect 9 0 35 0;
#X connect 14 0 15 0;
#X connect 14 0 16 0;
#X connect 15 0 18 0;
#X connect 16 0 17 0;
#X connect 17 0 19 1;
#X connect 18 0 19 1;
#X connect 19 0 2 1;
#X connect 21 0 17 0;
#X connect 22 0 2 2;
#X connect 23 0 24 0;
#X connect 23 0 25 0;
#X connect 24 0 27 0;
#X connect 25 0 26 0;
#X connect 26 0 22 1;
#X connect 27 0 22 1;
#X connect 28 0 26 0;
#X connect 32 0 79 0;
#X connect 33 0 78 0;
#X connect 34 0 36 0;
#X connect 35 0 37 0;
#X connect 36 0 49 0;
#X connect 37 0 54 0;
#X connect 39 0 80 0;
#X connect 44 0 82 0;
#X connect 45 0 46 0;
#X connect 45 0 68 0;
#X connect 46 0 93 0;
#X connect 47 0 44 2;
#X connect 48 0 47 0;
#X connect 48 0 71 0;
#X connect 49 0 19 0;
#X connect 50 0 56 0;
#X connect 50 0 63 0;
#X connect 51 0 59 0;
#X connect 54 0 22 0;
#X connect 55 0 57 0;
#X connect 55 0 65 0;
#X connect 56 0 60 0;
#X connect 57 0 61 0;
#X connect 59 0 42 0;
#X connect 59 0 43 0;
#X connect 60 0 49 0;
#X connect 60 1 49 1;
#X connect 61 0 54 0;
#X connect 61 1 54 1;
#X connect 62 0 64 0;
#X connect 63 0 56 0;
#X connect 64 0 63 0;
#X connect 64 1 63 1;
#X connect 65 0 57 0;
#X connect 66 0 65 0;
#X connect 66 1 65 1;
#X connect 67 0 66 0;
#X connect 68 0 46 0;
#X connect 69 0 68 0;
#X connect 69 1 68 1;
#X connect 70 0 69 0;
#X connect 71 0 47 0;
#X connect 72 0 71 0;
#X connect 72 1 71 1;
#X connect 73 0 72 0;
#X connect 78 0 36 0;
#X connect 78 1 36 1;
#X connect 79 0 34 0;
#X connect 79 1 33 0;
#X connect 79 1 34 1;
#X connect 80 0 38 0;
#X connect 80 0 96 0;
#X connect 80 0 40 0;
#X connect 80 0 41 0;
#X connect 81 0 1 0;
#X connect 82 0 81 0;
#X connect 82 2 120 0;
#X connect 82 2 85 0;
#X connect 83 0 86 0;
#X connect 83 0 82 0;
#X connect 84 0 85 0;
#X connect 85 0 82 0;
#X connect 86 0 85 0;
#X connect 87 0 88 0;
#X connect 87 0 89 0;
#X connect 88 0 91 0;
#X connect 89 0 90 0;
#X connect 90 0 95 0;
#X connect 91 0 95 0;
#X connect 92 0 90 0;
#X connect 93 0 44 1;
#X connect 95 0 93 0;
#X connect 95 1 93 1;
#X connect 97 0 98 0;
#X connect 98 0 37 0;
#X connect 98 1 37 1;
#X connect 99 0 35 0;
#X connect 99 1 97 0;
#X connect 99 1 35 1;
#X connect 100 0 99 0;
#X connect 101 0 44 0;
#X connect 102 0 101 1;
#X connect 102 0 101 2;
#X connect 102 0 101 3;
#X connect 104 0 102 0;
#X connect 105 0 101 1;
#X connect 106 0 101 3;
#X connect 107 0 108 0;
#X connect 107 0 109 0;
#X connect 108 0 111 0;
#X connect 109 0 110 0;
#X connect 110 0 105 1;
#X connect 111 0 105 1;
#X connect 112 0 110 0;
#X connect 113 0 114 0;
#X connect 113 0 115 0;
#X connect 114 0 117 0;
#X connect 115 0 116 0;
#X connect 116 0 106 1;
#X connect 117 0 106 1;
#X connect 118 0 116 0;
#X connect 119 0 7 0;
#X connect 120 0 82 1;
#X connect 121 0 83 0;
#X connect 131 0 134 0;
#X connect 132 0 133 0;
#X connect 133 0 105 0;
#X connect 134 0 106 0;
#X coords 0 -1 1 1 230 260 1 542 150;
#X restore 88 170 pd interfaz;
#N canvas 897 126 450 300 cargar 0;
#X obj 59 147 openpanel;
#X obj 44 92 cnv 15 230 40 empty empty empty 20 12 0 14 -203904 -66577
0;
#X obj 59 94 bng 25 250 50 0 empty empty Cargar_Video 30 12 0 14 -228856
-258113 -1;
#X text 196 92 Extensión;
#X text 191 104 .AVI y .MOV;
#X obj 59 191 s cargar_video;
#X text 49 116 -------------------------------;
#X connect 0 0 5 0;
#X connect 2 0 0 0;
#X coords 0 -1 1 1 230 40 1 44 92;
#X restore 88 129 pd cargar;
#N canvas 731 235 450 300 titulo 0;
#X obj 88 28 cnv 15 230 35 empty empty Animap 55 13 0 30 -203904 -1
0;
#X text 89 46 --------------------------------;
#X coords 0 -1 1 1 230 35 1 88 28;
#X restore 88 27 pd titulo;
#N canvas 733 261 450 300 comentarios 0;
#X obj 103 100 cnv 15 230 80 empty empty empty 20 12 0 14 -203904 -66577
0;
#X text 105 117 W-S: Alto;
#X text 105 131 A-D: Ancho;
#X text 104 101 --------------------------------;
#X text 106 146 Flechas Izq-Der: Pos X;
#X text 106 161 Flechas Arriba-Abajo: Pos Y;
#X coords 0 -1 1 1 230 80 1 103 100;
#X restore 88 431 pd comentarios;
