#N canvas 756 50 326 517 10;
#X declare -path libw/mrpeach;
#X declare -path libw/cyclone;
#X declare -path libw/gem;
#X declare -lib Gem;
#X declare -path libl/gem;
#X declare -path libl/mrpeach;
#X declare -path libl/cyclone;
#N canvas 548 298 450 300 datos 0;
#X obj 1 90 cnv 15 230 65 empty empty ESTADO 10 12 0 14 -203904 -1
0;
#X obj 13 112 tgl 20 1 empty empty empty 17 7 0 15 -228856 -1 -1 0
0.0282994;
#X obj 98 112 tgl 20 0 empty empty empty 17 7 0 10 -228856 -1 -1 0
0.603688;
#X text 11 130 PosX;
#X text 97 130 PosY;
#X obj 188 112 tgl 20 0 empty empty empty 17 7 0 10 -228856 -1 -1 0
0.260968;
#X text 170 130 Telefono;
#X obj 31 33 r gx;
#X obj 116 32 r gy;
#X obj 188 32 r gt;
#X msg 250 53 bang;
#X msg 250 95 0;
#X obj 250 33 loadbang;
#X obj 250 74 metro 3000;
#X obj 34 112 nbx 4 20 -1e+037 1e+037 0 0 empty empty empty 0 -8 0
10 -228856 -1 -1 0 256;
#X obj 119 112 nbx 4 20 -1e+037 1e+037 0 0 empty empty empty 0 -8 0
10 -228856 -1 -1 0 256;
#X text 2 139 --------------------------------;
#X connect 7 0 1 0;
#X connect 7 0 14 0;
#X connect 8 0 2 0;
#X connect 8 0 15 0;
#X connect 9 0 5 0;
#X connect 10 0 13 0;
#X connect 11 0 1 0;
#X connect 11 0 2 0;
#X connect 11 0 5 0;
#X connect 11 0 15 0;
#X connect 11 0 14 0;
#X connect 12 0 10 0;
#X connect 13 0 11 0;
#X coords 0 -1 1 1 230 65 1 1 90;
#X restore 52 51 pd datos;
#N canvas 148 14 1062 664 interfaz 0;
#X obj 200 24 gemhead;
#X obj 200 609 square;
#X obj 200 228 translateXYZ;
#X obj -144 61 vradio 15 1 0 3 empty \$0-full empty 0 -8 0 10 -262144
-1 -1 0;
#X msg -144 115 reset \, fullscreen \$1 \, create \, 1;
#X msg -144 172 0 \, destroy;
#N canvas 333 186 450 300 esc 0;
#X obj 65 20 gemkeyboard;
#X obj 65 167 outlet;
#X obj 89 71 keyname;
#X obj 128 96 sel Escape;
#X obj 189 47 sel Escape;
#X obj 150 22 gemkeyname;
#X obj 65 41 sel 27;
#X connect 0 0 6 0;
#X connect 2 1 3 0;
#X connect 3 0 1 0;
#X connect 4 0 1 0;
#X connect 5 1 4 0;
#X connect 6 0 1 0;
#X restore -144 150 pd esc;
#X obj -144 238 gemwin;
#X obj 223 58 r \$0-x;
#X obj 273 58 r \$0-y;
#X text -126 59 Default;
#X text -126 75 FullScreen 1;
#X obj 630 150 cnv 15 230 340 empty empty empty 20 12 0 14 -203904
-66577 0;
#X obj 828 276 bng 20 250 50 0 \$0-reset empty Reset -4 -6 0 10 -228856
-258113 -1;
#X obj 75 152 tgl 15 0 empty \$0-corx empty 17 7 0 10 -262144 -1 -1
0 1;
#X obj 75 168 sel 1;
#X obj 117 167 sel 0;
#X msg 117 185 1;
#X msg 75 185 -1;
#X obj 223 202 * \$1;
#X obj 643 383 tgl 15 0 \$0-corx empty Invertir_X 17 7 0 10 -228856
-1 -1 0 1;
#X obj 12 168 loadbang;
#X obj 273 203 * \$1;
#X obj 430 153 tgl 15 0 empty \$0-cory empty 17 7 0 10 -262144 -1 -1
0 1;
#X obj 437 169 sel 1;
#X obj 480 168 sel 0;
#X msg 480 186 1;
#X msg 437 186 -1;
#X obj 373 169 loadbang;
#X obj 643 403 tgl 15 0 \$0-cory empty Invertir_Y 17 7 0 10 -228856
-1 -1 0 1;
#X obj 736 383 tgl 15 0 \$0-rot1 empty Invertir_R1 17 7 0 10 -228856
-1 -1 0 1;
#X obj 736 403 tgl 15 0 \$0-rot2 empty Invertir_R2 17 7 0 10 -228856
-1 -1 0 1;
#X obj 88 28 r \$0-res;
#X obj 88 65 / 2;
#X obj 223 79 * \$1;
#X obj 273 79 * \$1;
#X obj 223 101 - \$1;
#X obj 273 101 - \$1;
#X obj 645 171 hsl 126 15 0 100 0 0 \$0-res empty Resolución_en_X
-2 -8 0 12 -228856 -1 -1 0 1;
#X obj 645 247 hsl 126 15 -400 400 0 0 \$0-posx empty Posición_en_X
-2 -8 0 12 -228856 -1 -1 6250 1;
#X obj 645 281 hsl 126 15 -400 400 0 0 \$0-posy empty Posición_en_Y
-2 -8 0 12 -228856 -1 -1 6250 1;
#X obj 645 316 hsl 126 15 1 300 0 0 \$0-an empty Ancho -2 -8 0 12 -228856
-1 -1 376 1;
#X obj 645 350 hsl 126 15 1 300 0 0 \$0-al empty Alto -2 -8 0 12 -228856
-1 -1 376 1;
#X obj 200 439 scaleXYZ;
#X obj 217 397 / 50;
#X obj 274 422 / 50;
#X obj 223 174 + \$1;
#X obj 273 174 + \$1;
#X obj 244 146 / 50;
#X obj 294 146 / 50;
#N canvas 197 51 833 549 teclas 0;
#X text 1 1 Pos X;
#X msg 2 215 0;
#X obj 86 198 loadbang;
#N canvas 663 195 450 300 contador 0;
#X obj 109 142 f;
#X floatatom 109 189 5 0 0 0 - - -, f 5;
#X obj 160 144 + \$1;
#X msg 181 120 1;
#X msg 221 127 -1;
#X msg 292 172 0;
#X obj 109 46 inlet;
#X obj 181 47 inlet;
#X obj 221 47 inlet;
#X obj 292 47 inlet;
#X obj 109 220 outlet;
#X obj 33 102 loadbang;
#X connect 0 0 1 0;
#X connect 0 0 2 0;
#X connect 1 0 10 0;
#X connect 2 0 0 1;
#X connect 3 0 2 1;
#X connect 4 0 2 1;
#X connect 5 0 1 0;
#X connect 5 0 0 0;
#X connect 6 0 0 0;
#X connect 7 0 3 0;
#X connect 8 0 4 0;
#X connect 9 0 5 0;
#X connect 11 0 3 0;
#X restore 2 145 pd contador;
#X msg 333 215 0;
#X obj 418 198 loadbang;
#N canvas 663 195 450 300 contador 0;
#X obj 109 142 f;
#X floatatom 109 189 5 0 0 0 - - -, f 5;
#X obj 160 144 + \$1;
#X msg 181 120 1;
#X msg 233 127 -1;
#X msg 292 172 0;
#X obj 109 46 inlet;
#X obj 181 47 inlet;
#X obj 233 47 inlet;
#X obj 292 47 inlet;
#X obj 109 220 outlet;
#X obj 33 103 loadbang;
#X connect 0 0 1 0;
#X connect 0 0 2 0;
#X connect 1 0 10 0;
#X connect 2 0 0 1;
#X connect 3 0 2 1;
#X connect 4 0 2 1;
#X connect 5 0 1 0;
#X connect 5 0 0 0;
#X connect 6 0 0 0;
#X connect 7 0 3 0;
#X connect 8 0 4 0;
#X connect 9 0 5 0;
#X connect 11 0 3 0;
#X restore 333 145 pd contador;
#X text 332 1 Pos Y;
#X obj 333 113 bng 15 250 50 0 empty empty empty 17 7 0 10 -262144
-1 -1;
#X obj 432 103 onebang;
#X obj 499 103 onebang;
#X obj 332 383 bng 15 250 50 0 empty empty empty 17 7 0 10 -262144
-1 -1;
#X obj 431 373 onebang;
#X obj 491 373 onebang;
#X obj 406 461 loadbang;
#N canvas 663 195 450 300 contador 0;
#X obj 109 142 f;
#X floatatom 109 189 5 0 0 0 - - -, f 5;
#X obj 160 144 + \$1;
#X msg 181 120 1;
#X msg 233 127 -1;
#X msg 292 172 0;
#X obj 109 46 inlet;
#X obj 181 47 inlet;
#X obj 233 47 inlet;
#X obj 292 47 inlet;
#X obj 109 220 outlet;
#X obj 33 103 loadbang;
#X connect 0 0 1 0;
#X connect 0 0 2 0;
#X connect 1 0 10 0;
#X connect 2 0 0 1;
#X connect 3 0 2 1;
#X connect 4 0 2 1;
#X connect 5 0 1 0;
#X connect 5 0 0 0;
#X connect 6 0 0 0;
#X connect 7 0 3 0;
#X connect 8 0 4 0;
#X connect 9 0 5 0;
#X connect 11 0 3 0;
#X restore 332 415 pd contador;
#X msg 332 478 10;
#X obj 333 20 gemkeyname;
#X obj 332 288 gemkeyname;
#X obj 333 65 sel Up;
#X obj 452 69 sel Down;
#X obj 332 332 sel w;
#X obj 443 334 sel s;
#X obj 2 113 bng 15 250 50 0 empty empty empty 17 7 0 10 -262144 -1
-1;
#X obj 121 103 onebang;
#X obj 181 103 onebang;
#X obj 3 19 gemkeyname;
#X obj 2 65 sel Right;
#X obj 121 69 sel Left;
#X obj 72 65 sel ';
#X obj 191 69 sel %;
#X obj 518 70 sel (;
#X obj 385 65 sel &;
#X text 331 269 Alto;
#X obj 372 332 sel W;
#X obj 485 334 sel S;
#X obj 407 166 r \$0-reset;
#X obj 406 436 r \$0-reset;
#X obj 333 190 s \$0-posy2;
#X obj 76 166 r \$0-reset;
#X obj 2 190 s \$0-posx2;
#X obj 332 454 s \$0-al2;
#X obj 684 26 gemkeyname;
#X obj 684 71 sel h;
#X obj 734 71 sel H;
#X obj 684 120 s \$0-ayuda;
#X obj 4 383 bng 15 250 50 0 empty empty empty 17 7 0 10 -262144 -1
-1;
#X obj 103 373 onebang;
#X obj 163 373 onebang;
#X obj 78 461 loadbang;
#N canvas 663 195 450 300 contador 0;
#X obj 109 142 f;
#X floatatom 109 189 5 0 0 0 - - -, f 5;
#X obj 160 144 + \$1;
#X msg 181 120 1;
#X msg 233 127 -1;
#X msg 292 172 0;
#X obj 109 46 inlet;
#X obj 181 47 inlet;
#X obj 233 47 inlet;
#X obj 292 47 inlet;
#X obj 109 220 outlet;
#X obj 33 103 loadbang;
#X connect 0 0 1 0;
#X connect 0 0 2 0;
#X connect 1 0 10 0;
#X connect 2 0 0 1;
#X connect 3 0 2 1;
#X connect 4 0 2 1;
#X connect 5 0 1 0;
#X connect 5 0 0 0;
#X connect 6 0 0 0;
#X connect 7 0 3 0;
#X connect 8 0 4 0;
#X connect 9 0 5 0;
#X connect 11 0 3 0;
#X restore 4 415 pd contador;
#X msg 4 478 10;
#X obj 4 288 gemkeyname;
#X obj 78 436 r \$0-reset;
#X obj 4 454 s \$0-an2;
#X obj 4 332 sel d;
#X obj 44 332 sel D;
#X obj 157 334 sel A;
#X obj 115 334 sel a;
#X text 3 269 Ancho;
#X obj 207 334 loadbang;
#X obj 242 69 loadbang;
#X obj 562 69 loadbang;
#X obj 551 334 loadbang;
#X connect 1 0 40 0;
#X connect 2 0 1 0;
#X connect 3 0 40 0;
#X connect 4 0 38 0;
#X connect 5 0 4 0;
#X connect 6 0 38 0;
#X connect 8 0 6 0;
#X connect 9 0 6 2;
#X connect 10 0 6 1;
#X connect 11 0 15 0;
#X connect 12 0 15 2;
#X connect 13 0 15 1;
#X connect 14 0 16 0;
#X connect 15 0 41 0;
#X connect 16 0 41 0;
#X connect 17 1 19 0;
#X connect 17 1 20 0;
#X connect 17 1 31 0;
#X connect 17 1 32 0;
#X connect 18 1 21 0;
#X connect 18 1 22 0;
#X connect 18 1 34 0;
#X connect 18 1 35 0;
#X connect 19 0 8 0;
#X connect 19 0 9 1;
#X connect 19 0 10 0;
#X connect 20 0 8 0;
#X connect 20 0 9 0;
#X connect 20 0 10 1;
#X connect 21 0 11 0;
#X connect 21 0 12 1;
#X connect 21 0 13 0;
#X connect 22 0 11 0;
#X connect 22 0 12 0;
#X connect 22 0 13 1;
#X connect 23 0 3 0;
#X connect 24 0 3 2;
#X connect 25 0 3 1;
#X connect 26 1 27 0;
#X connect 26 1 28 0;
#X connect 26 1 29 0;
#X connect 26 1 30 0;
#X connect 27 0 23 0;
#X connect 27 0 24 1;
#X connect 27 0 25 0;
#X connect 28 0 23 0;
#X connect 28 0 24 0;
#X connect 28 0 25 1;
#X connect 29 0 23 0;
#X connect 29 0 24 1;
#X connect 29 0 25 0;
#X connect 30 0 24 0;
#X connect 30 0 25 1;
#X connect 30 0 23 0;
#X connect 31 0 10 1;
#X connect 31 0 9 0;
#X connect 31 0 8 0;
#X connect 32 0 10 0;
#X connect 32 0 9 1;
#X connect 32 0 8 0;
#X connect 34 0 11 0;
#X connect 34 0 12 1;
#X connect 34 0 13 0;
#X connect 35 0 12 0;
#X connect 35 0 11 0;
#X connect 35 0 13 1;
#X connect 36 0 6 3;
#X connect 36 0 4 0;
#X connect 37 0 15 3;
#X connect 37 0 16 0;
#X connect 39 0 3 3;
#X connect 39 0 1 0;
#X connect 42 1 43 0;
#X connect 42 1 44 0;
#X connect 43 0 45 0;
#X connect 44 0 45 0;
#X connect 46 0 50 0;
#X connect 47 0 50 2;
#X connect 48 0 50 1;
#X connect 49 0 51 0;
#X connect 50 0 54 0;
#X connect 51 0 54 0;
#X connect 52 1 55 0;
#X connect 52 1 56 0;
#X connect 52 1 57 0;
#X connect 52 1 58 0;
#X connect 53 0 50 3;
#X connect 53 0 51 0;
#X connect 55 0 46 0;
#X connect 55 0 47 1;
#X connect 55 0 48 0;
#X connect 56 0 46 0;
#X connect 56 0 47 1;
#X connect 56 0 48 0;
#X connect 57 0 47 0;
#X connect 57 0 46 0;
#X connect 57 0 48 1;
#X connect 58 0 46 0;
#X connect 58 0 47 0;
#X connect 58 0 48 1;
#X connect 60 0 47 1;
#X connect 61 0 24 1;
#X connect 62 0 9 1;
#X connect 63 0 12 1;
#X restore -144 319 pd teclas;
#X msg 642 105 10;
#X obj 165 157 t b f;
#X obj 329 157 t b f;
#X obj 133 88 r \$0-posx2;
#X obj 133 129 + \$1;
#X obj 133 109 t b f;
#X obj 397 129 + \$1;
#X obj 397 107 t b f;
#X obj 397 85 r \$0-posy2;
#X obj 125 380 + \$1;
#X obj 125 352 t b f;
#X obj 125 329 r \$0-an2;
#X obj 344 380 + \$1;
#X obj 344 357 t b f;
#X obj 344 335 r \$0-al2;
#X obj 828 171 vradio 20 1 0 3 \$0-full empty GEM 1 -8 0 10 -228856
-260097 -1 0;
#X text -126 91 FullScreen 2;
#X text 830 191 F1;
#X text 830 211 F2;
#X obj 88 84 t b f;
#X obj 88 47 t b f;
#X msg 642 66 0;
#X obj 200 579 pix_texture;
#X obj 200 501 pix_film;
#X msg -117 484 open \$1;
#X obj -5 461 loadbang;
#X msg -5 484 auto 1;
#X obj 17 350 tgl 15 0 empty \$0-inv empty 17 7 0 10 -262144 -1 -1
0 1;
#X obj 17 366 sel 1;
#X obj 59 365 sel 0;
#X msg 59 383 1;
#X msg 17 383 -1;
#X obj -46 366 loadbang;
#X obj 217 417 * \$1;
#X obj 828 395 tgl 20 0 \$0-inv empty ESP 2 -7 0 10 -228856 -1 -1 0
1;
#X obj 86 400 t b f;
#X obj 645 208 hsl 126 15 0 100 0 0 \$0-resy empty Resolución_en_Y
-2 -8 0 12 -228856 -1 -1 0 1;
#X obj 348 65 / 2;
#X obj 348 84 t b f;
#X obj 348 47 t b f;
#X obj 348 28 r \$0-resy;
#X obj 200 339 rotateXYZ;
#X msg 299 322 0;
#X obj 328 256 r \$0-ry;
#X obj 217 312 * \$1;
#X obj 260 312 * \$1;
#X obj 113 262 tgl 15 0 empty \$0-rot1 empty 17 7 0 10 -262144 -1 -1
0 1;
#X obj 113 278 sel 1;
#X obj 157 277 sel 0;
#X msg 157 295 1;
#X msg 113 295 -1;
#X obj 49 278 loadbang;
#X obj 385 262 tgl 15 0 empty \$0-rot2 empty 17 7 0 10 -262144 -1 -1
0 1;
#X obj 385 278 sel 1;
#X obj 428 277 sel 0;
#X msg 428 295 1;
#X msg 385 295 -1;
#X obj 321 278 loadbang;
#X msg -144 215 view 0 0 20 \, perspec -1 1 -1 1 4 50;
#X msg 285 501 0;
#X obj -117 460 r cargar_video;
#X obj 773 171 nbx 4 15 -1e+037 1e+037 0 0 empty \$0-res empty 0 -8
0 10 -228856 -1 -1 0 256;
#X obj 773 208 nbx 4 15 -1e+037 1e+037 0 0 empty \$0-resy empty 0 -8
0 10 -228856 -1 -1 0 256;
#X obj 773 247 nbx 4 15 -1e+037 1e+037 0 0 empty \$0-posx empty 0 -8
0 10 -228856 -1 -1 0 256;
#X obj 773 281 nbx 4 15 -1e+037 1e+037 0 0 empty \$0-posy empty 0 -8
0 10 -228856 -1 -1 0 256;
#X obj 773 316 nbx 4 15 -1e+037 1e+037 0 0 empty \$0-an empty 0 -8
0 10 -228856 -1 -1 10 256;
#X obj 773 350 nbx 4 15 -1e+037 1e+037 0 0 empty \$0-al empty 0 -8
0 10 -228856 -1 -1 10 256;
#X text 725 381 |;
#X text 725 391 |;
#X text 725 401 |;
#X obj 272 256 r \$0-rx;
#X obj 217 256 r \$0-rz;
#X obj 217 276 * 9;
#X obj 272 276 * 9;
#N canvas 340 265 450 300 cargar 0;
#X obj 17 59 declare -path libw/mrpeach;
#X obj 17 79 declare -path libw/cyclone;
#X obj 17 39 declare -path libw/gem;
#X obj 17 229 declare -lib Gem;
#X obj 17 147 declare -path libl/gem;
#X obj 17 167 declare -path libl/mrpeach;
#X obj 17 187 declare -path libl/cyclone;
#X text 16 22 Windows Libs;
#X text 14 130 Linux Libs;
#X restore -144 298 pd cargar;
#X text 834 172 D;
#N canvas 174 115 623 317 conex 0;
#X obj -837 -305 s \$0-x;
#X obj -750 -306 s \$0-y;
#X obj -837 -277 s gx;
#X obj -750 -277 s gy;
#X obj -837 -405 unpackOSC;
#X obj -837 -428 udpreceive 12001;
#X obj -837 -350 routeOSC /x;
#X obj -750 -350 routeOSC /y;
#X obj -644 -317 unpack 0 0 0;
#X text -640 -287 X;
#X text -527 -287 Z;
#X text -581 -287 Y;
#X obj -644 -269 s \$0-rx;
#X obj -588 -269 s \$0-ry;
#X obj -531 -269 s \$0-rz;
#X obj -644 -242 s gt;
#X obj -644 -350 routeOSC /accelerometer;
#X obj -464 -317 unpack 0 0 0;
#X text -458 -287 X;
#X text -333 -287 Z;
#X text -391 -287 Y;
#X obj -464 -269 s \$0-rgx;
#X obj -401 -269 s \$0-rgy;
#X obj -338 -269 s \$0-rgz;
#X obj -464 -350 routeOSC /giroscope;
#X connect 4 0 6 0;
#X connect 4 0 7 0;
#X connect 4 0 16 0;
#X connect 4 0 24 0;
#X connect 5 0 4 0;
#X connect 6 0 0 0;
#X connect 6 0 2 0;
#X connect 7 0 1 0;
#X connect 7 0 3 0;
#X connect 8 0 12 0;
#X connect 8 0 15 0;
#X connect 8 1 13 0;
#X connect 8 2 14 0;
#X connect 16 0 8 0;
#X connect 17 0 21 0;
#X connect 17 1 22 0;
#X connect 17 2 23 0;
#X connect 24 0 17 0;
#X restore -144 277 pd conex;
#X obj 217 363 r \$0-an;
#X obj 274 363 r \$0-al;
#X obj 294 122 r \$0-posy;
#X obj 222 122 r \$0-posx;
#N canvas 299 99 671 478 debug 0;
#X obj 131 31 loadbang;
#X obj 11 422 print ANIMAP;
#X obj 14 126 print -n;
#X msg 131 53 --------------------------------------------------------------------------------------------------
;
#X obj 131 87 loadbang;
#X obj 285 387 r \$0-reset;
#X msg 285 405 Reset;
#X msg 131 109 Animap v1.3.0-beta;
#X obj 365 387 onebang;
#X obj 365 352 r gx;
#X msg 365 370 bang;
#X obj 411 361 loadbang;
#X msg 365 405 Conexión con Animap Monitor Establecida;
#X msg 343 306 Flecha Izquierda: Mover Izquierda;
#X msg 383 228 Tecla W: Aumentar Alto;
#X msg 373 247 Tecla S: Disminuir Alto;
#X msg 363 268 Tecla D: Aumentar Ancho;
#X msg 353 287 Tecla A: Disminuir Ancho;
#X obj 333 204 r \$0-ayuda;
#X obj 14 36 r \$0-ayuda;
#X msg 333 325 Flecha Derecha: Mover Derecha;
#X obj 51 204 r \$0-video;
#X msg 51 226 Extensión de Video Soportada: AVI-MOV;
#X connect 0 0 3 0;
#X connect 3 0 2 0;
#X connect 4 0 7 0;
#X connect 5 0 6 0;
#X connect 6 0 1 0;
#X connect 7 0 2 0;
#X connect 8 0 12 0;
#X connect 9 0 10 0;
#X connect 10 0 8 0;
#X connect 11 0 8 1;
#X connect 12 0 1 0;
#X connect 13 0 1 0;
#X connect 14 0 1 0;
#X connect 15 0 1 0;
#X connect 16 0 1 0;
#X connect 17 0 1 0;
#X connect 18 0 14 0;
#X connect 18 0 15 0;
#X connect 18 0 16 0;
#X connect 18 0 17 0;
#X connect 18 0 13 0;
#X connect 18 0 20 0;
#X connect 19 0 3 0;
#X connect 20 0 1 0;
#X connect 21 0 22 0;
#X connect 22 0 1 0;
#X restore -144 361 pd debug;
#X obj 642 87 r \$0-reset;
#X obj 642 48 r \$0-reset;
#X obj 299 302 r \$0-reset;
#X obj 828 311 bng 20 250 50 0 \$0-ayuda empty ? 5 10 0 18 -228856
-1 -1;
#X obj 642 27 loadbang;
#N canvas 525 226 546 366 texto 0;
#X obj 141 60 gemhead;
#X obj 141 226 pix_image;
#X obj 141 254 pix_texture;
#X obj 141 279 alpha;
#X obj 141 305 square;
#X obj 12 188 loadbang;
#X msg 12 209 open help.png;
#X obj 141 200 scaleXYZ;
#X obj 235 128 loadbang;
#X msg 265 183 1;
#X msg 352 145 3.9;
#X obj 141 124 spigot 0;
#X obj 225 60 r \$0-ayuda;
#X obj 315 77 delay 5000;
#X msg 194 94 1;
#X msg 224 94 0;
#X obj 141 162 translateXYZ;
#X msg 235 183 2;
#X msg 309 145 -2.8;
#X connect 0 0 11 0;
#X connect 1 0 2 0;
#X connect 2 0 3 0;
#X connect 3 0 4 0;
#X connect 5 0 6 0;
#X connect 6 0 1 0;
#X connect 7 0 1 0;
#X connect 8 0 9 0;
#X connect 8 0 18 0;
#X connect 8 0 10 0;
#X connect 8 0 17 0;
#X connect 9 0 7 2;
#X connect 10 0 16 2;
#X connect 11 0 16 0;
#X connect 12 0 13 0;
#X connect 12 0 14 0;
#X connect 13 0 15 0;
#X connect 14 0 11 1;
#X connect 15 0 11 1;
#X connect 16 0 7 0;
#X connect 17 0 7 1;
#X connect 18 0 16 1;
#X restore -144 340 pd texto;
#X msg 70 484 auto 0;
#X obj 70 461 r \$0-stop;
#X obj -5 441 r \$0-play;
#X obj 696 459 hsl 150 20 0 641 0 0 \$0-eleFrame empty empty -2 -8
0 10 -228856 -1 -1 4045 1;
#X msg 693 626 range 0 \$1;
#X obj 226 549 s \$0-frames;
#X obj 693 606 r \$0-frames;
#X obj 253 475 r \$0-eleFrame;
#X obj 643 459 bng 20 250 50 0 \$0-stop empty || 3 10 0 12 -228856
-258113 -1;
#X obj 668 459 bng 20 250 50 0 \$0-play empty ▶ 5 8 0 18 -228856
-258113 -1;
#X obj 226 526 unpack f f f;
#N canvas 663 195 450 300 contador 0;
#X obj 109 142 f;
#X floatatom 109 189 5 0 0 0 - - -, f 5;
#X obj 160 144 + \$1;
#X msg 181 120 1;
#X msg 233 127 -1;
#X msg 292 172 0;
#X obj 109 46 inlet;
#X obj 181 47 inlet;
#X obj 233 47 inlet;
#X obj 292 47 inlet;
#X obj 109 220 outlet;
#X obj 33 103 loadbang;
#X connect 0 0 1 0;
#X connect 0 0 2 0;
#X connect 1 0 10 0;
#X connect 2 0 0 1;
#X connect 3 0 2 1;
#X connect 4 0 2 1;
#X connect 5 0 1 0;
#X connect 5 0 0 0;
#X connect 6 0 0 0;
#X connect 7 0 3 0;
#X connect 8 0 4 0;
#X connect 9 0 5 0;
#X connect 11 0 3 0;
#X restore 360 563 pd contador;
#X obj 360 615 s \$0-frameActual;
#X obj 693 587 r \$0-frameActual;
#X obj 431 434 r \$0-stop;
#X obj 360 428 r \$0-play;
#X msg 360 451 1;
#X msg 391 451 0;
#X obj 744 522 s \$0-frameSel;
#X obj 546 546 r \$0-frameSel;
#X obj 768 432 hradio 20 1 0 4 \$0-frameRate empty 24_25_30_60 2 14
0 12 -228856 -260097 -1 0;
#X text 694 434 FrameRate:;
#X obj 360 538 metro;
#X obj 375 504 loadbang;
#X msg 443 521 41.66;
#X obj 443 461 r \$0-frameRate;
#X obj 482 495 sel 1;
#X obj 443 495 sel 0;
#X msg 482 521 40;
#X msg 521 521 33.33;
#X obj 521 495 sel 2;
#X msg 560 521 16.66;
#X obj 560 495 sel 3;
#X obj -53 189 s \$0-escape;
#X obj 391 406 r \$0-escape;
#X obj 546 597 sel 1;
#X msg 546 580 1, f 1;
#X msg 562 580 0, f 1;
#X msg 546 614 0, f 1;
#X msg 578 614 1, f 1;
#X obj 360 589 spigot;
#X obj 562 563 delay 0.0001;
#X obj 744 501 spigot;
#X obj 890 506 r \$0-stop;
#X obj 871 464 r \$0-play;
#X msg 871 484 0, f 1;
#X msg 890 484 1, f 1;
#X obj 600 597 loadbang;
#X obj -82 140 s \$0-bangPlay;
#X obj 532 442 r \$0-bangPlay;
#X msg 693 565 range 0 0;
#X obj 693 546 loadbang;
#X obj -117 507 s \$0-iniciaVideo;
#X obj 874 420 r \$0-iniciaVideo;
#X msg 874 442 0;
#X connect 0 0 2 0;
#X connect 2 0 92 0;
#X connect 3 0 4 0;
#X connect 4 0 7 0;
#X connect 4 0 109 0;
#X connect 4 0 187 0;
#X connect 5 0 7 0;
#X connect 5 0 172 0;
#X connect 6 0 5 0;
#X connect 8 0 34 0;
#X connect 9 0 35 0;
#X connect 14 0 15 0;
#X connect 14 0 16 0;
#X connect 15 0 18 0;
#X connect 16 0 17 0;
#X connect 17 0 19 1;
#X connect 18 0 19 1;
#X connect 19 0 2 1;
#X connect 21 0 17 0;
#X connect 22 0 2 2;
#X connect 23 0 24 0;
#X connect 23 0 25 0;
#X connect 24 0 27 0;
#X connect 25 0 26 0;
#X connect 26 0 22 1;
#X connect 27 0 22 1;
#X connect 28 0 26 0;
#X connect 32 0 71 0;
#X connect 33 0 70 0;
#X connect 34 0 36 0;
#X connect 35 0 37 0;
#X connect 36 0 46 0;
#X connect 37 0 47 0;
#X connect 43 0 74 0;
#X connect 44 0 84 0;
#X connect 45 0 43 2;
#X connect 46 0 19 0;
#X connect 47 0 22 0;
#X connect 48 0 52 0;
#X connect 49 0 53 0;
#X connect 51 0 41 0;
#X connect 51 0 42 0;
#X connect 52 0 46 0;
#X connect 52 1 46 1;
#X connect 53 0 47 0;
#X connect 53 1 47 1;
#X connect 54 0 56 0;
#X connect 55 0 48 0;
#X connect 56 0 55 0;
#X connect 56 1 55 1;
#X connect 57 0 49 0;
#X connect 58 0 57 0;
#X connect 58 1 57 1;
#X connect 59 0 58 0;
#X connect 60 0 44 0;
#X connect 61 0 60 0;
#X connect 61 1 60 1;
#X connect 62 0 61 0;
#X connect 63 0 45 0;
#X connect 64 0 63 0;
#X connect 64 1 63 1;
#X connect 65 0 64 0;
#X connect 70 0 36 0;
#X connect 70 1 36 1;
#X connect 71 0 34 0;
#X connect 71 1 33 0;
#X connect 71 1 34 1;
#X connect 72 0 38 0;
#X connect 72 0 87 0;
#X connect 72 0 39 0;
#X connect 72 0 40 0;
#X connect 73 0 1 0;
#X connect 74 0 73 0;
#X connect 74 1 149 0;
#X connect 74 2 110 0;
#X connect 74 2 77 0;
#X connect 74 2 150 3;
#X connect 75 0 74 0;
#X connect 75 0 191 0;
#X connect 76 0 77 0;
#X connect 77 0 74 0;
#X connect 78 0 79 0;
#X connect 78 0 80 0;
#X connect 79 0 82 0;
#X connect 80 0 81 0;
#X connect 81 0 86 0;
#X connect 82 0 86 0;
#X connect 83 0 81 0;
#X connect 84 0 43 1;
#X connect 86 0 84 0;
#X connect 86 1 84 1;
#X connect 88 0 89 0;
#X connect 89 0 37 0;
#X connect 89 1 37 1;
#X connect 90 0 35 0;
#X connect 90 1 88 0;
#X connect 90 1 35 1;
#X connect 91 0 90 0;
#X connect 92 0 43 0;
#X connect 93 0 92 1;
#X connect 93 0 92 2;
#X connect 93 0 92 3;
#X connect 95 0 92 1;
#X connect 96 0 92 3;
#X connect 97 0 98 0;
#X connect 97 0 99 0;
#X connect 98 0 101 0;
#X connect 99 0 100 0;
#X connect 100 0 95 1;
#X connect 101 0 95 1;
#X connect 102 0 100 0;
#X connect 103 0 104 0;
#X connect 103 0 105 0;
#X connect 104 0 107 0;
#X connect 105 0 106 0;
#X connect 106 0 96 1;
#X connect 107 0 96 1;
#X connect 108 0 106 0;
#X connect 109 0 7 0;
#X connect 110 0 74 1;
#X connect 111 0 75 0;
#X connect 121 0 124 0;
#X connect 122 0 123 0;
#X connect 123 0 95 0;
#X connect 124 0 96 0;
#X connect 128 0 44 0;
#X connect 128 0 60 0;
#X connect 129 0 45 0;
#X connect 129 0 63 0;
#X connect 130 0 49 0;
#X connect 130 0 57 0;
#X connect 131 0 48 0;
#X connect 131 0 55 0;
#X connect 133 0 51 0;
#X connect 134 0 72 0;
#X connect 135 0 93 0;
#X connect 137 0 72 0;
#X connect 137 0 51 0;
#X connect 139 0 74 0;
#X connect 140 0 139 0;
#X connect 141 0 77 0;
#X connect 142 0 181 0;
#X connect 143 0 142 0;
#X connect 145 0 143 0;
#X connect 146 0 74 1;
#X connect 149 0 144 0;
#X connect 150 0 179 0;
#X connect 152 0 142 0;
#X connect 153 0 156 0;
#X connect 154 0 155 0;
#X connect 155 0 161 0;
#X connect 156 0 161 0;
#X connect 158 0 175 0;
#X connect 158 0 150 0;
#X connect 158 0 180 0;
#X connect 161 0 150 0;
#X connect 162 0 163 0;
#X connect 163 0 161 1;
#X connect 164 0 166 0;
#X connect 164 0 165 0;
#X connect 164 0 169 0;
#X connect 164 0 171 0;
#X connect 165 0 167 0;
#X connect 166 0 163 0;
#X connect 167 0 161 1;
#X connect 168 0 161 1;
#X connect 169 0 168 0;
#X connect 170 0 161 1;
#X connect 171 0 170 0;
#X connect 173 0 156 0;
#X connect 174 0 177 0;
#X connect 174 1 178 0;
#X connect 175 0 174 0;
#X connect 176 0 174 0;
#X connect 177 0 179 1;
#X connect 178 0 179 1;
#X connect 179 0 151 0;
#X connect 180 0 176 0;
#X connect 181 0 157 0;
#X connect 182 0 185 0;
#X connect 183 0 184 0;
#X connect 184 0 181 1;
#X connect 185 0 181 1;
#X connect 186 0 178 0;
#X connect 188 0 148 0;
#X connect 189 0 142 0;
#X connect 190 0 189 0;
#X connect 192 0 193 0;
#X connect 193 0 142 0;
#X coords 0 -1 1 1 230 340 1 630 150;
#X restore 52 158 pd interfaz;
#N canvas 897 126 450 300 cargar 0;
#X obj 54 177 openpanel;
#X obj 44 92 cnv 15 230 40 empty empty empty 20 12 0 14 -203904 -66577
0;
#X obj 54 95 bng 25 250 50 0 \$0-video empty Cargar_Video 32 12 0 18
-228856 -258113 -1;
#X obj 54 211 s cargar_video;
#X text 45 117 --------------------------------;
#X obj 54 145 delay 1;
#X connect 0 0 3 0;
#X connect 2 0 5 0;
#X connect 5 0 0 0;
#X coords 0 -1 1 1 230 40 1 44 92;
#X restore 52 117 pd cargar;
#N canvas 731 235 450 300 titulo 0;
#X obj 88 28 cnv 15 230 35 empty empty Animap 55 13 0 30 -203904 -1
0;
#X text 89 48 --------------------------------;
#X coords 0 -1 1 1 230 35 1 88 28;
#X restore 52 15 pd titulo;
